# Blender 5.0.1
# www.blender.org
o Circle
v -0.000000 -0.750000 -0.750000
v -0.146318 -0.750000 -0.735589
v -0.287013 -0.750000 -0.692910
v -0.416678 -0.750000 -0.623602
v -0.530330 -0.750000 -0.530330
v -0.623602 -0.750000 -0.416678
v -0.692910 -0.750000 -0.287013
v -0.735589 -0.750000 -0.146318
v -0.750000 -0.750000 -0.000000
v -0.735589 -0.750000 0.146318
v -0.692910 -0.750000 0.287013
v -0.623602 -0.750000 0.416678
v -0.530330 -0.750000 0.530330
v -0.416678 -0.750000 0.623602
v -0.287013 -0.750000 0.692910
v -0.146318 -0.750000 0.735589
v -0.000000 -0.750000 0.750000
v 0.146318 -0.750000 0.735589
v 0.287013 -0.750000 0.692910
v 0.416678 -0.750000 0.623602
v 0.530330 -0.750000 0.530330
v 0.623602 -0.750000 0.416678
v 0.692910 -0.750000 0.287013
v 0.735589 -0.750000 0.146318
v 0.750000 -0.750000 -0.000000
v 0.735589 -0.750000 -0.146318
v 0.692910 -0.750000 -0.287013
v 0.623602 -0.750000 -0.416678
v 0.530330 -0.750000 -0.530330
v 0.416678 -0.750000 -0.623602
v 0.287013 -0.750000 -0.692910
v 0.146318 -0.750000 -0.735589
v -0.000000 0.750000 -0.750000
v -0.146318 0.750000 -0.735589
v -0.287013 0.750000 -0.692910
v -0.416678 0.750000 -0.623602
v -0.530330 0.750000 -0.530330
v -0.623602 0.750000 -0.416678
v -0.692910 0.750000 -0.287013
v -0.735589 0.750000 -0.146318
v -0.750000 0.750000 -0.000000
v -0.735589 0.750000 0.146318
v -0.692910 0.750000 0.287013
v -0.623602 0.750000 0.416678
v -0.530330 0.750000 0.530330
v -0.416678 0.750000 0.623602
v -0.287013 0.750000 0.692910
v -0.146318 0.750000 0.735589
v -0.000000 0.750000 0.750000
v 0.146318 0.750000 0.735589
v 0.287013 0.750000 0.692910
v 0.416678 0.750000 0.623602
v 0.530330 0.750000 0.530330
v 0.623602 0.750000 0.416678
v 0.692910 0.750000 0.287013
v 0.735589 0.750000 0.146318
v 0.750000 0.750000 -0.000000
v 0.735589 0.750000 -0.146318
v 0.692910 0.750000 -0.287013
v 0.623602 0.750000 -0.416678
v 0.530330 0.750000 -0.530330
v 0.416678 0.750000 -0.623602
v 0.287013 0.750000 -0.692910
v 0.146318 0.750000 -0.735589
vn 0.2903 -0.0000 -0.9569
vn 0.2903 -0.0000 0.9569
vn -0.6344 -0.0000 0.7730
vn 0.0980 -0.0000 -0.9952
vn 0.4714 -0.0000 0.8819
vn -0.4714 -0.0000 0.8819
vn -0.0980 -0.0000 -0.9952
vn 0.6344 -0.0000 0.7730
vn -0.2903 -0.0000 0.9569
vn -0.2903 -0.0000 -0.9569
vn 0.7730 -0.0000 0.6344
vn -0.0980 -0.0000 0.9952
vn -0.4714 -0.0000 -0.8819
vn 0.8819 -0.0000 0.4714
vn -0.6344 -0.0000 -0.7730
vn 0.9569 -0.0000 0.2903
vn -0.7730 -0.0000 -0.6344
vn 0.9952 -0.0000 0.0980
vn -0.8819 -0.0000 -0.4714
vn 0.9952 -0.0000 -0.0980
vn -0.9569 -0.0000 -0.2903
vn 0.9569 -0.0000 -0.2903
vn -0.9952 -0.0000 -0.0980
vn 0.8819 -0.0000 -0.4714
vn -0.9952 -0.0000 0.0980
vn 0.7730 -0.0000 -0.6344
vn -0.9569 -0.0000 0.2903
vn 0.6344 -0.0000 -0.7730
vn -0.8819 -0.0000 0.4714
vn 0.4714 -0.0000 -0.8819
vn 0.0980 -0.0000 0.9952
vn -0.7730 -0.0000 0.6344
vn -0.0000 -1.0000 -0.0000
vn -0.0000 1.0000 -0.0000
vt 0.000000 0.000000
s 0
f 16/1/1 15/1/1 47/1/1 48/1/1
f 3/1/2 2/1/2 34/1/2 35/1/2
f 30/1/3 29/1/3 61/1/3 62/1/3
f 17/1/4 16/1/4 48/1/4 49/1/4
f 4/1/5 3/1/5 35/1/5 36/1/5
f 31/1/6 30/1/6 62/1/6 63/1/6
f 18/1/7 17/1/7 49/1/7 50/1/7
f 5/1/8 4/1/8 36/1/8 37/1/8
f 32/1/9 31/1/9 63/1/9 64/1/9
f 19/1/10 18/1/10 50/1/10 51/1/10
f 6/1/11 5/1/11 37/1/11 38/1/11
f 1/1/12 32/1/12 64/1/12 33/1/12
f 20/1/13 19/1/13 51/1/13 52/1/13
f 7/1/14 6/1/14 38/1/14 39/1/14
f 21/1/15 20/1/15 52/1/15 53/1/15
f 8/1/16 7/1/16 39/1/16 40/1/16
f 22/1/17 21/1/17 53/1/17 54/1/17
f 9/1/18 8/1/18 40/1/18 41/1/18
f 23/1/19 22/1/19 54/1/19 55/1/19
f 10/1/20 9/1/20 41/1/20 42/1/20
f 24/1/21 23/1/21 55/1/21 56/1/21
f 11/1/22 10/1/22 42/1/22 43/1/22
f 25/1/23 24/1/23 56/1/23 57/1/23
f 12/1/24 11/1/24 43/1/24 44/1/24
f 26/1/25 25/1/25 57/1/25 58/1/25
f 13/1/26 12/1/26 44/1/26 45/1/26
f 27/1/27 26/1/27 58/1/27 59/1/27
f 14/1/28 13/1/28 45/1/28 46/1/28
f 28/1/29 27/1/29 59/1/29 60/1/29
f 15/1/30 14/1/30 46/1/30 47/1/30
f 2/1/31 1/1/31 33/1/31 34/1/31
f 29/1/32 28/1/32 60/1/32 61/1/32
f 34/1/33 33/1/33 64/1/33 63/1/33 62/1/33 61/1/33 60/1/33 59/1/33 58/1/33 57/1/33 56/1/33 55/1/33 54/1/33 53/1/33 52/1/33 51/1/33 50/1/33 49/1/33 48/1/33 47/1/33 46/1/33 45/1/33 44/1/33 43/1/33 42/1/33 41/1/33 40/1/33 39/1/33 38/1/33 37/1/33 36/1/33 35/1/33
f 2/1/34 3/1/34 4/1/34 5/1/34 6/1/34 7/1/34 8/1/34 9/1/34 10/1/34 11/1/34 12/1/34 13/1/34 14/1/34 15/1/34 16/1/34 17/1/34 18/1/34 19/1/34 20/1/34 21/1/34 22/1/34 23/1/34 24/1/34 25/1/34 26/1/34 27/1/34 28/1/34 29/1/34 30/1/34 31/1/34 32/1/34 1/1/34
